<?xml version="1.0" standalone="no"?>
<!DOCTYPE svg PUBLIC "-//W3C//DTD SVG 20010904//EN"
 "http://www.w3.org/TR/2001/REC-SVG-20010904/DTD/svg10.dtd">
<svg version="1.0" xmlns="http://www.w3.org/2000/svg"
 width="145.000000pt" height="145.000000pt" viewBox="0 0 145.000000 145.000000"
 preserveAspectRatio="xMidYMid meet">
<metadata>
Created by potrace 1.14, written by Peter Selinger 2001-2017
</metadata>
<g transform="translate(0.000000,145.000000) scale(0.100000,-0.100000)"
fill="#000000" stroke="none">
<path d="M565 1434 c-93 -16 -153 -37 -252 -86 -95 -47 -236 -156 -259 -199
-23 -46 -45 -184 -43 -279 6 -339 202 -649 504 -798 114 -56 176 -75 229 -68
114 16 291 110 402 213 48 45 144 160 144 173 0 5 6 15 13 22 17 18 71 132 91
194 29 89 44 205 41 316 -2 59 -6 111 -9 116 -3 5 -8 24 -11 42 -12 71 -34
100 -126 175 -195 157 -470 225 -724 179z m305 -312 c75 -19 191 -76 224 -111
26 -27 29 -37 31 -113 2 -98 -15 -179 -55 -266 -59 -127 -163 -233 -283 -287
-68 -31 -90 -27 -188 36 -101 66 -164 136 -217 244 -39 78 -50 122 -57 222 -8
114 4 151 60 186 84 53 140 76 250 101 39 9 181 2 235 -12z"/>
</g>
</svg>
